<svg xmlns="http://www.w3.org/2000/svg" width="150" height="25" viewBox="0 0 150 25" fill="none">
    <path fill-rule="evenodd" clip-rule="evenodd" d="M41.8 24.224V18.88L43.72 16.768L48.168 24.224H53.608L47.304 13.792L53.64 6.752H47.72L41.8 13.056V0H37V24.224H41.8ZM61.16 24.608C63.336 24.608 65.0853 23.936 66.408 22.592V24.224H70.888V12.704C70.888 11.4453 70.5733 10.3413 69.944 9.392C69.3147 8.44267 68.4347 7.70133 67.304 7.168C66.1733 6.63467 64.872 6.368 63.4 6.368C61.544 6.368 59.9173 6.79467 58.52 7.648C57.1227 8.50133 56.168 9.65333 55.656 11.104L59.496 12.928C59.7947 12.16 60.2693 11.5413 60.92 11.072C61.5707 10.6027 62.3227 10.368 63.176 10.368C64.072 10.368 64.7813 10.592 65.304 11.04C65.8267 11.488 66.088 12.0427 66.088 12.704V13.184L61.256 13.952C59.1653 14.2933 57.608 14.944 56.584 15.904C55.56 16.864 55.048 18.08 55.048 19.552C55.048 21.1307 55.5973 22.368 56.696 23.264C57.7947 24.16 59.2827 24.608 61.16 24.608ZM60.616 20.64C61.0213 20.9387 61.5227 21.088 62.12 21.088C63.3147 21.088 64.2747 20.7147 65 19.968C65.7253 19.2213 66.088 18.3147 66.088 17.248V16.704L62.12 17.408C61.4373 17.536 60.9147 17.7547 60.552 18.064C60.1893 18.3733 60.008 18.816 60.008 19.392C60.008 19.9253 60.2107 20.3413 60.616 20.64ZM79.208 24.224V14.016C79.208 13.0133 79.5067 12.208 80.104 11.6C80.7013 10.992 81.4693 10.688 82.408 10.688C83.3467 10.688 84.1147 10.992 84.712 11.6C85.3093 12.208 85.608 13.0133 85.608 14.016V24.224H90.408V12.992C90.408 11.6693 90.1307 10.512 89.576 9.52C89.0213 8.528 88.248 7.75467 87.256 7.2C86.264 6.64533 85.1067 6.368 83.784 6.368C82.6747 6.368 81.6933 6.576 80.84 6.992C79.9867 7.408 79.336 8.04267 78.888 8.896V6.752H74.408V24.224H79.208ZM107.944 23.392C106.6 24.2027 105.075 24.608 103.368 24.608C102.301 24.608 101.304 24.432 100.376 24.08C99.448 23.728 98.6747 23.2213 98.056 22.56V24.224H93.576V0H98.376V8.224C99.6133 6.98667 101.288 6.368 103.4 6.368C105.064 6.368 106.568 6.77333 107.912 7.584C109.256 8.39467 110.323 9.488 111.112 10.864C111.901 12.24 112.296 13.7813 112.296 15.488C112.296 17.1733 111.907 18.7093 111.128 20.096C110.349 21.4827 109.288 22.5813 107.944 23.392ZM102.792 20.288C101.491 20.288 100.429 19.8453 99.608 18.96C98.7867 18.0747 98.376 16.9173 98.376 15.488C98.376 14.08 98.7867 12.928 99.608 12.032C100.429 11.136 101.491 10.688 102.792 10.688C104.115 10.688 105.203 11.1413 106.056 12.048C106.909 12.9547 107.336 14.1013 107.336 15.488C107.336 16.896 106.909 18.048 106.056 18.944C105.203 19.84 104.115 20.288 102.792 20.288ZM125.768 22.592C124.445 23.936 122.696 24.608 120.52 24.608C118.643 24.608 117.155 24.16 116.056 23.264C114.957 22.368 114.408 21.1307 114.408 19.552C114.408 18.08 114.92 16.864 115.944 15.904C116.968 14.944 118.525 14.2933 120.616 13.952L125.448 13.184V12.704C125.448 12.0427 125.187 11.488 124.664 11.04C124.141 10.592 123.432 10.368 122.536 10.368C121.683 10.368 120.931 10.6027 120.28 11.072C119.629 11.5413 119.155 12.16 118.856 12.928L115.016 11.104C115.528 9.65333 116.483 8.50133 117.88 7.648C119.277 6.79467 120.904 6.368 122.76 6.368C124.232 6.368 125.533 6.63467 126.664 7.168C127.795 7.70133 128.675 8.44267 129.304 9.392C129.933 10.3413 130.248 11.4453 130.248 12.704V24.224H125.768V22.592ZM121.48 21.088C120.883 21.088 120.381 20.9387 119.976 20.64C119.571 20.3413 119.368 19.9253 119.368 19.392C119.368 18.816 119.549 18.3733 119.912 18.064C120.275 17.7547 120.797 17.536 121.48 17.408L125.448 16.704V17.248C125.448 18.3147 125.085 19.2213 124.36 19.968C123.635 20.7147 122.675 21.088 121.48 21.088ZM138.568 14.016V24.224H133.768V6.752H138.248V8.896C138.696 8.04267 139.347 7.408 140.2 6.992C141.053 6.576 142.035 6.368 143.144 6.368C144.467 6.368 145.624 6.64533 146.616 7.2C147.608 7.75467 148.381 8.528 148.936 9.52C149.491 10.512 149.768 11.6693 149.768 12.992V24.224H144.968V14.016C144.968 13.0133 144.669 12.208 144.072 11.6C143.475 10.992 142.707 10.688 141.768 10.688C140.829 10.688 140.061 10.992 139.464 11.6C138.867 12.208 138.568 13.0133 138.568 14.016Z" fill="#000112"/>
    <rect width="6" height="25" rx="2" fill="#635FC7"/>
    <rect opacity="0.75" x="9" width="6" height="25" rx="2" fill="#635FC7"/>
    <rect opacity="0.5" x="18" width="6" height="25" rx="2" fill="#635FC7"/>
</svg>