<svg xmlns="http://www.w3.org/2000/svg" width="251" height="48" viewBox="0 0 251 48" fill="none">
    <path fill-rule="evenodd" clip-rule="evenodd" d="M183.908 26.3675C184.316 26.1875 184.802 26.5325 184.632 26.9375C183.472 29.7125 180.688 31.6667 177.438 31.6667C173.146 31.6667 169.667 28.2575 169.667 24.0517C169.667 20.5108 172.133 17.5342 175.474 16.6817C175.908 16.5717 176.192 17.0883 175.955 17.4617C175.337 18.4358 175.009 19.5661 175.01 20.72C175.01 24.1375 177.837 26.9075 181.324 26.9075C182.214 26.909 183.094 26.7251 183.908 26.3675ZM179.502 17.4258C179.207 16.9842 179.734 16.4575 180.176 16.7525L180.963 17.2775C181.283 17.4905 181.658 17.6041 182.042 17.6041C182.425 17.6041 182.801 17.4905 183.12 17.2775L183.907 16.7525C184.349 16.4575 184.876 16.9842 184.581 17.4258L184.056 18.2133C183.843 18.5326 183.729 18.9079 183.729 19.2917C183.729 19.6755 183.843 20.0507 184.056 20.37L184.581 21.1575C184.876 21.5992 184.349 22.1258 183.907 21.8308L183.12 21.3058C182.801 21.0929 182.425 20.9792 182.042 20.9792C181.658 20.9792 181.283 21.0929 180.963 21.3058L180.177 21.8308C179.735 22.1258 179.207 21.5992 179.502 21.1575L180.027 20.37C180.24 20.0507 180.353 19.6755 180.353 19.2917C180.353 18.9079 180.24 18.5326 180.027 18.2133L179.502 17.4258Z" fill="#828FA3"/>
</svg>